<?xml version="1.0" encoding="UTF-8"?>
<svg version="1.1" xmlns="http://www.w3.org/2000/svg" width="156" height="205">
<path d="M0 0 C51.48 0 102.96 0 156 0 C156 67.65 156 135.3 156 205 C104.52 205 53.04 205 0 205 C0 137.35 0 69.7 0 0 Z " fill="#FDFCFB" transform="translate(0,0)"/>
<path d="M0 0 C0 45.54 0 91.08 0 138 C-51.48 138 -102.96 138 -156 138 C-156 94.11 -156 50.22 -156 5 C-149.96218699 7.4151252 -145.93606466 10.85459241 -141 15 C-139.86304688 15.91458984 -139.86304688 15.91458984 -138.703125 16.84765625 C-117.33092848 34.69571398 -106.20186548 63.61112285 -99.4375 89.875 C-97.07189455 98.83439077 -93.03131645 107.09897033 -88.9375 115.375 C-88.60919189 116.04104248 -88.28088379 116.70708496 -87.94262695 117.39331055 C-86.37132535 120.51511999 -84.7758126 123.32195039 -82.76953125 126.203125 C-80.25934628 130.17065798 -80.68424415 132.42154018 -81 137 C-79.35 137 -77.7 137 -76 137 C-76.08636719 135.83984375 -76.17273438 134.6796875 -76.26171875 133.484375 C-76.25624947 128.50951545 -74.42278439 125.37019533 -71.8125 121.25 C-65.44789159 110.95649023 -61.53332266 100.07248523 -58.125 88.5 C-47.56072215 53.57697375 -34.73251844 21.8797612 -3 1 C-1 0 -1 0 0 0 Z " fill="#FDFDFD" transform="translate(156,67)"/>
<path d="M0 0 C-2.49059924 2.68154519 -5.26793764 4.70089998 -8.25 6.8125 C-27.75089303 20.93913117 -42.03113254 42.01700934 -49.078125 65.0859375 C-49.75139393 67.214152 -50.51298297 69.31499175 -51.32421875 71.39453125 C-52.79005746 75.24769685 -53.9661073 79.15864135 -55.12890625 83.11328125 C-60.05315639 99.81447513 -65.24266195 115.36399293 -75 130 C-75.45139459 132.0492094 -75.45139459 132.0492094 -75.625 134.1875 C-75.810625 136.0746875 -75.810625 136.0746875 -76 138 C-77.65 138 -79.3 138 -81 138 C-81.11214844 137.07380859 -81.11214844 137.07380859 -81.2265625 136.12890625 C-82.147503 130.19696596 -83.80345791 126.42258757 -87.2890625 121.59375 C-95.16889114 109.64807371 -99.52739078 95.250203 -103.4375 81.625 C-108.94931134 62.55490606 -116.4606178 44.60283375 -129 29 C-129.55042969 28.29746094 -130.10085937 27.59492187 -130.66796875 26.87109375 C-137.2672359 18.86105689 -145.61584697 12.60216763 -154.41796875 7.19140625 C-154.94003906 6.79824219 -155.46210938 6.40507813 -156 6 C-156 5.34 -156 4.68 -156 4 C-150.21533782 4.60891181 -145.28002073 6.69584894 -140 9 C-139.16984375 9.34933594 -138.3396875 9.69867188 -137.484375 10.05859375 C-130.53727466 13.21537362 -125.42888271 17.69737038 -120 23 C-118.63875 24.299375 -118.63875 24.299375 -117.25 25.625 C-116.5075 26.40875 -115.765 27.1925 -115 28 C-114.0925 28.928125 -113.185 29.85625 -112.25 30.8125 C-103.69976427 40.99766453 -98.61656483 53.35110995 -95 66 C-94.98541748 65.23445801 -94.97083496 64.46891602 -94.95581055 63.68017578 C-94.88065298 60.16131431 -94.78421764 56.6433323 -94.6875 53.125 C-94.66494141 51.92101562 -94.64238281 50.71703125 -94.61914062 49.4765625 C-94.09972426 32.09972426 -94.09972426 32.09972426 -90 28 C-88.00041636 27.95919217 -85.99954746 27.95745644 -84 28 C-82.91104109 31.58077593 -82.79810192 35.00468023 -82.68359375 38.734375 C-82.64169922 40.02988281 -82.59980469 41.32539062 -82.55664062 42.66015625 C-82.51683329 44.02343476 -82.47712094 45.38671606 -82.4375 46.75 C-82.39427726 48.12891875 -82.35066179 49.50782526 -82.30664062 50.88671875 C-82.20056042 54.2577119 -82.0985015 57.62877826 -82 61 C-81.99589111 60.37955811 -81.99178223 59.75911621 -81.98754883 59.11987305 C-81.9546489 56.30811336 -81.88401352 53.49853145 -81.8125 50.6875 C-81.80379883 49.22280273 -81.80379883 49.22280273 -81.79492188 47.72851562 C-81.71257349 45.06591795 -81.57357782 42.60204949 -81 40 C-78.796875 38.1171875 -78.796875 38.1171875 -76 37 C-73.15915924 34.73941608 -70.39449627 32.40117646 -67.62109375 30.05859375 C-65.43879936 28.34463079 -63.52743476 27.10017748 -61 26 C-62.46309808 38.58264349 -66.30445413 50.3439046 -70.37890625 62.27734375 C-70.80067139 63.51460205 -70.80067139 63.51460205 -71.23095703 64.77685547 C-71.8506292 66.56819985 -72.49726615 68.35020402 -73.15234375 70.12890625 C-75.64181338 78.56098081 -75.11793049 87.29314985 -75.0625 96 C-75.05747487 97.36067544 -75.05291376 98.72135267 -75.04882812 100.08203125 C-75.03710459 103.38806725 -75.02069427 106.69401001 -75 110 C-74.92483154 108.89712646 -74.92483154 108.89712646 -74.84814453 107.77197266 C-74.61376507 104.38914895 -74.36944597 101.0071106 -74.125 97.625 C-74.04636719 96.46871094 -73.96773438 95.31242187 -73.88671875 94.12109375 C-71.86922424 66.65213004 -58.59699137 36.95101902 -38.2421875 17.86328125 C-27.58192572 9.00449228 -14.3893715 -0.4111249 0 0 Z " fill="#876639" transform="translate(156,66)"/>
<path d="M0 0 C-2.49059924 2.68154519 -5.26793764 4.70089998 -8.25 6.8125 C-27.75089303 20.93913117 -42.03113254 42.01700934 -49.078125 65.0859375 C-49.74965057 67.20864121 -50.50818617 69.30439476 -51.31640625 71.37890625 C-52.80065494 75.28162347 -54.01110281 79.25346165 -55.19921875 83.25390625 C-63.69574056 111.73756645 -63.69574056 111.73756645 -71 123 C-72.6903069 119.61938619 -70.77886689 116.15291557 -69.75 112.6875 C-69.27820725 111.03434995 -68.80816148 109.38070035 -68.33984375 107.7265625 C-68.10894043 106.91477539 -67.87803711 106.10298828 -67.64013672 105.26660156 C-63.99612151 92.36384137 -62.06040881 79.20842711 -61.90234375 65.79296875 C-61.74776076 54.76570311 -60.49017036 47.300226 -54 38 C-53.19718676 36.7934541 -52.39513229 35.58640306 -51.59375 34.37890625 C-41.12036729 18.90955271 -26.01927666 4.87151838 -7.30078125 0.34765625 C-4.83492965 -0.02494272 -2.49017207 -0.07114777 0 0 Z " fill="#4E6432" transform="translate(156,66)"/>
<path d="M0 0 C5.78466218 0.60891181 10.71997927 2.69584894 16 5 C16.83015625 5.34933594 17.6603125 5.69867188 18.515625 6.05859375 C25.46272534 9.21537362 30.57111729 13.69737038 36 19 C37.36125 20.299375 37.36125 20.299375 38.75 21.625 C39.4925 22.40875 40.235 23.1925 41 24 C41.9075 24.928125 42.815 25.85625 43.75 26.8125 C56.37246388 41.87487314 62.12669269 59.82236768 63.17138672 79.10009766 C63.93396274 91.39640301 66.92232975 103.10862336 70 115 C70.33468352 116.33299506 70.66854242 117.66619913 71 119 C67.41746626 115.84862459 65.48234197 112.41738334 63.5625 108.125 C63.26102051 107.46226074 62.95954102 106.79952148 62.64892578 106.11669922 C58.51207652 96.86432024 55.35478085 87.35500787 52.5625 77.625 C47.05068866 58.55490606 39.5393822 40.60283375 27 25 C26.44957031 24.29746094 25.89914063 23.59492187 25.33203125 22.87109375 C18.7327641 14.86105689 10.38415303 8.60216763 1.58203125 3.19140625 C1.05996094 2.79824219 0.53789062 2.40507813 0 2 C0 1.34 0 0.68 0 0 Z " fill="#4E6432" transform="translate(0,70)"/>
<path d="M0 0 C1.4540625 0.0309375 1.4540625 0.0309375 2.9375 0.0625 C4.01365185 3.60465163 4.12309026 6.96622643 4.21875 10.65625 C4.25613281 11.93371094 4.29351562 13.21117188 4.33203125 14.52734375 C4.38561574 16.54831466 4.43767576 18.56932162 4.48974609 20.59033203 C4.54170258 22.54990188 4.59891077 24.50933026 4.65625 26.46875 C4.68654297 27.63728516 4.71683594 28.80582031 4.74804688 30.00976562 C4.81830845 32.88116562 4.81830845 32.88116562 5.44224548 34.85198975 C6.09509435 37.76590383 6.05681307 40.49695477 6.05102539 43.48339844 C6.05094986 44.78444519 6.05087433 46.08549194 6.05079651 47.42596436 C6.04569024 48.84126829 6.04047425 50.25657184 6.03515625 51.671875 C6.03329035 53.12347363 6.03186726 54.57507288 6.03086853 56.02667236 C6.02705688 59.84069569 6.01723815 63.65468073 6.00616455 67.46868896 C5.99592135 71.36323529 5.99136468 75.25778783 5.98632812 79.15234375 C5.97561465 86.78907993 5.95855449 94.42578459 5.9375 102.0625 C2.29596959 98.64672236 1.13050786 96.32670187 -0.0625 91.4375 C-0.30395752 90.44907104 -0.30395752 90.44907104 -0.55029297 89.44067383 C-0.8911656 88.03148065 -1.22547396 86.6206859 -1.55371094 85.20849609 C-2.04762042 83.12525984 -2.58520444 81.05796144 -3.1328125 78.98828125 C-7.71882035 61.01432658 -8.41715172 42.53482056 -7.875 24.0625 C-7.84510986 22.91217285 -7.81521973 21.7618457 -7.78442383 20.57666016 C-6.92507807 0.14132812 -6.92507807 0.14132812 0 0 Z " fill="#CEA054" transform="translate(69.0625,93.9375)"/>
<path d="M0 0 C2.5 0.25 2.5 0.25 4.5 2.25 C5.125 4.375 5.125 4.375 5.5 6.25 C6.16 6.25 6.82 6.25 7.5 6.25 C8.16 4.93 8.82 3.61 9.5 2.25 C12.375 2.125 12.375 2.125 15.5 2.25 C16.16 2.91 16.82 3.57 17.5 4.25 C17.21269945 6.58944736 16.88063221 8.9239143 16.5 11.25 C16.995 11.745 16.995 11.745 17.5 12.25 C18.82 12.25 20.14 12.25 21.5 12.25 C20.94010697 16.24012371 19.74330232 18.7755052 17.4375 22.0625 C16.61572266 23.24779297 16.61572266 23.24779297 15.77734375 24.45703125 C15.35582031 25.04871094 14.93429688 25.64039062 14.5 26.25 C12.546875 25.4140625 12.546875 25.4140625 10.5 24.25 C9.75 21.625 9.75 21.625 9.5 19.25 C8.84 19.25 8.18 19.25 7.5 19.25 C6.0393715 21.89738916 5.5 23.14448334 5.5 26.25 C5.83 26.58 6.16 26.91 6.5 27.25 C6.6875 29.6875 6.6875 29.6875 6.5 32.25 C4.5 34.25 4.5 34.25 2.125 34.625 C-1.25163282 34.14262388 -2.34386856 32.80541504 -4.5 30.25 C-4.87125 30.745 -5.2425 31.24 -5.625 31.75 C-8.26701674 33.86361339 -10.21137147 33.5359677 -13.5 33.25 C-14.5 32.25 -14.5 32.25 -14.5625 29.1875 C-14.541875 28.218125 -14.52125 27.24875 -14.5 26.25 C-15.49 26.25 -16.48 26.25 -17.5 26.25 C-16.06874399 22.33551482 -14.22488708 18.95866662 -12 15.4375 C-11.3915625 14.46167969 -10.783125 13.48585938 -10.15625 12.48046875 C-9.33640625 11.37638672 -9.33640625 11.37638672 -8.5 10.25 C-7.84 10.25 -7.18 10.25 -6.5 10.25 C-4.875 12.25 -4.875 12.25 -3.5 14.25 C-0.37802522 12.9410428 -0.37802522 12.9410428 1.5 10.25 C0.695625 10.105625 -0.10875 9.96125 -0.9375 9.8125 C-3.5 9.25 -3.5 9.25 -4.5 8.25 C-4.6875 5.3125 -4.6875 5.3125 -4.5 2.25 C-2.5 0.25 -2.5 0.25 0 0 Z " fill="#F0ECE5" transform="translate(98.5,31.75)"/>
<path d="M0 0 C11.67909393 1.03094146 22.59790813 9.59286778 30.015625 18.390625 C35.39687203 25.41500089 39.41665393 32.95169098 43 41 C43.36351562 41.79535156 43.72703125 42.59070312 44.1015625 43.41015625 C48.13806919 54.10501276 47.76930734 71.27376121 44 82 C43.01 82.495 43.01 82.495 42 83 C41.86948242 82.27522461 41.73896484 81.55044922 41.60449219 80.80371094 C40.99535044 77.45076433 40.37274585 74.10044549 39.75 70.75 C39.54503906 69.61046875 39.34007812 68.4709375 39.12890625 67.296875 C37.68698338 59.60661972 35.68004238 52.34854612 33 45 C32.45291382 43.49880615 32.45291382 43.49880615 31.89477539 41.96728516 C25.80080341 25.72933732 15.64979661 12.00074744 1.3984375 2.05859375 C0.93695312 1.70925781 0.47546875 1.35992188 0 1 C0 0.67 0 0.34 0 0 Z " fill="#896A3F" transform="translate(17,17)"/>
<path d="M0 0 C0.33 0 0.66 0 1 0 C1.51035659 23.73158154 0.63959846 56.54060231 -13 77 C-13.45139459 79.0492094 -13.45139459 79.0492094 -13.625 81.1875 C-13.74875 82.445625 -13.8725 83.70375 -14 85 C-15.65 85 -17.3 85 -19 85 C-19 82.36 -19 79.72 -19 77 C-18.67 77 -18.34 77 -18 77 C-18 79.31 -18 81.62 -18 84 C-17.01 84 -16.02 84 -15 84 C-15 68.16 -15 52.32 -15 36 C-14.67 36 -14.34 36 -14 36 C-13.67 42.93 -13.34 49.86 -13 57 C-12.87882812 55.23914063 -12.75765625 53.47828125 -12.6328125 51.6640625 C-12.46387328 49.31768443 -12.29458383 46.97133157 -12.125 44.625 C-12.00705078 42.89056641 -12.00705078 42.89056641 -11.88671875 41.12109375 C-11.15366611 31.14030005 -9.70030538 22.02483924 -6.0625 12.6875 C-5.81048828 12.01138672 -5.55847656 11.33527344 -5.29882812 10.63867188 C-3.85533611 6.85458155 -2.27834955 3.3558596 0 0 Z " fill="#CAA15B" transform="translate(94,119)"/>
<path d="M0 0 C2.5 0.25 2.5 0.25 4.5 2.25 C5.125 4.375 5.125 4.375 5.5 6.25 C6.16 6.25 6.82 6.25 7.5 6.25 C8.16 4.93 8.82 3.61 9.5 2.25 C12.375 2.125 12.375 2.125 15.5 2.25 C16.16 2.91 16.82 3.57 17.5 4.25 C17.21269945 6.58944736 16.88063221 8.9239143 16.5 11.25 C16.83 11.58 17.16 11.91 17.5 12.25 C18.82 12.25 20.14 12.25 21.5 12.25 C20.94010697 16.24012371 19.74330232 18.7755052 17.4375 22.0625 C16.61572266 23.24779297 16.61572266 23.24779297 15.77734375 24.45703125 C15.35582031 25.04871094 14.93429688 25.64039062 14.5 26.25 C10.640625 24.53125 10.640625 24.53125 9.375 22 C9.08625 21.0925 8.7975 20.185 8.5 19.25 C8.12875 18.156875 7.7575 17.06375 7.375 15.9375 C7.08625 15.050625 6.7975 14.16375 6.5 13.25 C4.85 12.92 3.2 12.59 1.5 12.25 C1.5 11.59 1.5 10.93 1.5 10.25 C0.695625 10.105625 -0.10875 9.96125 -0.9375 9.8125 C-3.5 9.25 -3.5 9.25 -4.5 8.25 C-4.6875 5.3125 -4.6875 5.3125 -4.5 2.25 C-2.5 0.25 -2.5 0.25 0 0 Z " fill="#F7F4F0" transform="translate(98.5,31.75)"/>
<path d="M0 0 C4.95575221 7.74336283 4.95575221 7.74336283 4 13 C2.3125 14.9375 2.3125 14.9375 0 16 C-2.82210914 15.86233614 -4.41596895 15.43261559 -6.6875 13.75 C-9.10117264 10.53176982 -10.13628369 6.88672338 -11 3 C-7.14243493 0.84694043 -4.44870215 -0.39253254 0 0 Z " fill="#8A6839" transform="translate(123,12)"/>
<path d="M0 0 C0.33 0.99 0.66 1.98 1 3 C-0.1942626 5.23518779 -1.41447865 7.27441969 -2.8125 9.375 C-5.27009869 13.13216659 -7.49310447 16.74242215 -9 21 C-9.66 21 -10.32 21 -11 21 C-11 18.03 -11 15.06 -11 12 C-12.65 11.67 -14.3 11.34 -16 11 C-17.01329656 8.42069966 -17.11938461 7.31551646 -16.125 4.6875 C-14 3 -14 3 -11.96875 3.11328125 C-10.38893319 3.37395102 -8.80951118 3.63702341 -7.23046875 3.90234375 C-4.71104565 4.22535963 -4.71104565 4.22535963 -1.9375 2.0625 C-1.298125 1.381875 -0.65875 0.70125 0 0 Z " fill="#CDA461" transform="translate(108,64)"/>
<path d="M0 0 C2 2 2 2 2.5 4.875 C2 8 2 8 -0.5625 10.375 C-4.36872775 12.17430766 -6.84276583 12.33257873 -11 12 C-10.40909091 4.90909091 -10.40909091 4.90909091 -8.875 1.5 C-5.97382662 -0.8209387 -3.58204196 -0.39076821 0 0 Z " fill="#8A6B43" transform="translate(77,78)"/>
<path d="M0 0 C3.0625 0.3125 3.0625 0.3125 4.9375 1.4375 C6.59104531 4.19340884 6.45615568 6.16325452 6.0625 9.3125 C4.9375 11.1875 4.9375 11.1875 3.0625 12.3125 C-0.08235925 12.70560741 -2.07031671 12.78805213 -4.875 11.25 C-6.5865104 8.12901045 -5.73041991 5.66716116 -4.9375 2.3125 C-2.9375 0.3125 -2.9375 0.3125 0 0 Z " fill="#88673D" transform="translate(88.9375,77.6875)"/>
<path d="M0 0 C3.11259604 0.345844 4.82872813 0.87379967 7.375 2.75 C9 5 9 5 8.9375 7.625 C8 10 8 10 5 12 C1.9375 12.25 1.9375 12.25 -1 12 C-1.66 11.34 -2.32 10.68 -3 10 C-2.69903201 5.86169011 -2.32101984 3.48152976 0 0 Z " fill="#8C6D45" transform="translate(76,64)"/>
<path d="M0 0 C2.40928735 0.96371494 3.76007009 1.65210163 5.25 3.8125 C6.13966799 6.40736496 6.35828391 8.27704225 6 11 C2.54970958 13.30019361 1.05445642 13.43132515 -3 13 C-5 10 -5 10 -4.875 7.0625 C-3.89462199 3.63117696 -2.69937452 2.26399153 0 0 Z " fill="#8C6D44" transform="translate(107,18)"/>
<path d="M0 0 C-0.55989303 3.99012371 -1.75669768 6.5255052 -4.0625 9.8125 C-4.88427734 10.99779297 -4.88427734 10.99779297 -5.72265625 12.20703125 C-6.14417969 12.79871094 -6.56570312 13.39039063 -7 14 C-8.32 13.34 -9.64 12.68 -11 12 C-11.3125 9.3125 -11.3125 9.3125 -11 6 C-7.40568936 1.7435795 -5.60697557 0 0 0 Z " fill="#D6AA62" transform="translate(120,44)"/>
<path d="M0 0 C3 0.25 3 0.25 5 2.25 C4.42307692 8.82692308 4.42307692 8.82692308 3 10.25 C0.66702567 10.29092937 -1.66705225 10.29241723 -4 10.25 C-5.38125018 7.48749964 -5.19079306 5.30268901 -5 2.25 C-3 0.25 -3 0.25 0 0 Z " fill="#8B6A40" transform="translate(102,43.75)"/>
<path d="M0 0 C-1.31860889 4.61513112 -3.21355437 8.09897612 -6 12 C-9.875 11.125 -9.875 11.125 -11 10 C-11.46332046 4.67181467 -11.46332046 4.67181467 -9.75 2.1875 C-6.48297613 -0.02940906 -3.94431207 0 0 0 Z " fill="#D3A861" transform="translate(129,29)"/>
<path d="M0 0 C0.66 0 1.32 0 2 0 C4 3 4 3 3.875 5.4375 C2.20922767 10.31583326 -1.57423451 12.67064974 -6 15 C-6.66 15 -7.32 15 -8 15 C-6.5482621 9.33822218 -3.68441695 4.50540116 0 0 Z " fill="#D6A963" transform="translate(90,42)"/>
<path d="M0 0 C2.4375 0.8125 2.4375 0.8125 4.4375 2.8125 C4.10778521 6.10964793 3.8148161 7.4351839 1.4375 9.8125 C-1.0625 10.0625 -1.0625 10.0625 -3.5625 9.8125 C-5.5625 7.8125 -5.5625 7.8125 -5.875 5.375 C-5.5625 2.8125 -5.5625 2.8125 -4.375 0.9375 C-2.5625 -0.1875 -2.5625 -0.1875 0 0 Z " fill="#90734C" transform="translate(80.5625,90.1875)"/>
<path d="M0 0 C3.0625 0.1875 3.0625 0.1875 5.0625 2.1875 C4.6875 5.3125 4.6875 5.3125 4.0625 8.1875 C1.7525 8.5175 -0.5575 8.8475 -2.9375 9.1875 C-4.9375 6.1875 -4.9375 6.1875 -4.625 3.5625 C-3.63731654 0.1505026 -3.65603948 0.23336422 0 0 Z " fill="#907249" transform="translate(110.9375,33.8125)"/>
<path d="M0 0 C2.5 0.25 2.5 0.25 4.5 2.25 C4.86796448 5.12012296 4.87509409 6.65774618 3.3125 9.125 C1.5 10.25 1.5 10.25 -1.125 10 C-3.5 9.25 -3.5 9.25 -4.5 8.25 C-4.6875 5.3125 -4.6875 5.3125 -4.5 2.25 C-2.5 0.25 -2.5 0.25 0 0 Z " fill="#D7A960" transform="translate(98.5,31.75)"/>
<path d="M0 0 C1 1 1 1 1.1875 3.9375 C1 7 1 7 -1 9 C-4.0625 9.1875 -4.0625 9.1875 -7 9 C-8 8 -8 8 -8.25 5.625 C-8 3 -8 3 -6.8125 1.1875 C-4.41628976 -0.38243085 -2.80951486 -0.29573841 0 0 Z " fill="#8A6B42" transform="translate(92,56)"/>
<path d="M0 0 C2.5 0.25 2.5 0.25 4.5 2.25 C4.75 4.75 4.75 4.75 4.5 7.25 C2.5 9.25 2.5 9.25 0 9.5 C-2.5 9.25 -2.5 9.25 -4.5 7.25 C-4.75 4.75 -4.75 4.75 -4.5 2.25 C-2.5 0.25 -2.5 0.25 0 0 Z " fill="#896A40" transform="translate(100.5,56.75)"/>
<path d="M0 0 C1.65 0.33 3.3 0.66 5 1 C5.33 1.99 5.66 2.98 6 4 C6.66 4 7.32 4 8 4 C7.34 5.32 6.68 6.64 6 8 C3.36 8 0.72 8 -2 8 C-2.6875 6.25 -2.6875 6.25 -3 4 C-1.5625 1.75 -1.5625 1.75 0 0 Z " fill="#8F7145" transform="translate(94,67)"/>
<path d="M0 0 C0.66 0 1.32 0 2 0 C2.27714844 1.18078125 2.55429688 2.3615625 2.83984375 3.578125 C3.2057143 5.13542016 3.57160054 6.69271163 3.9375 8.25 C4.21110352 9.41595703 4.21110352 9.41595703 4.49023438 10.60546875 C4.75610352 11.73662109 4.75610352 11.73662109 5.02734375 12.890625 C5.18968506 13.58188477 5.35202637 14.27314453 5.51928711 14.98535156 C5.9985662 16.99399101 6.49546602 18.99756942 7 21 C3.81213375 18.10566319 1.96686681 15.41353184 0.1875 11.5 C-0.25207031 10.5615625 -0.69164062 9.623125 -1.14453125 8.65625 C-2.30771994 5.04452256 -1.64413531 3.28827061 0 0 Z " fill="#586A32" transform="translate(64,168)"/>
<path d="M0 0 C0.33 1.32 0.66 2.64 1 4 C0.05125 4.20625 -0.8975 4.4125 -1.875 4.625 C-5.29166667 5.70833333 -5.29166667 5.70833333 -6.375 9.125 C-6.58125 10.07375 -6.7875 11.0225 -7 12 C-7.28875 11.38125 -7.5775 10.7625 -7.875 10.125 C-8.93720042 7.86674235 -8.93720042 7.86674235 -11 6 C-11 5.01 -11 4.02 -11 3 C-7.14243493 0.84694043 -4.44870215 -0.39253254 0 0 Z " fill="#D3A765" transform="translate(123,12)"/>
<path d="M0 0 C0.66 0.99 1.32 1.98 2 3 C0.86563637 7.76979406 -1.39720805 12.03714494 -3.625 16.375 C-4.11226563 17.33599609 -4.11226563 17.33599609 -4.609375 18.31640625 C-5.40257407 19.87947501 -6.20077031 21.44000622 -7 23 C-8.28961193 20.42077613 -7.79211692 19.59708789 -7.00390625 16.8671875 C-6.77509766 16.06152344 -6.54628906 15.25585938 -6.31054688 14.42578125 C-6.06369141 13.58402344 -5.81683594 12.74226562 -5.5625 11.875 C-5.31951172 11.02550781 -5.07652344 10.17601562 -4.82617188 9.30078125 C-4.2238569 7.19858388 -3.61489475 5.09854569 -3 3 C-2.67 3.99 -2.34 4.98 -2 6 C-1.34 6 -0.68 6 0 6 C0 4.02 0 2.04 0 0 Z " fill="#647441" transform="translate(92,166)"/>
<path d="M0 0 C-2.04390083 2.11867768 -4.13964857 3.99008884 -6.5 5.75 C-7.38171875 6.42289062 -7.38171875 6.42289062 -8.28125 7.109375 C-9.13203125 7.55023438 -9.13203125 7.55023438 -10 8 C-10.99 7.67 -11.98 7.34 -13 7 C-12.67 5.35 -12.34 3.7 -12 2 C-7.8803623 0.70756464 -4.33168317 -0.26252625 0 0 Z " fill="#63774A" transform="translate(156,66)"/>
<path d="M0 0 C2.475 0.495 2.475 0.495 5 1 C4.67 3.31 4.34 5.62 4 8 C3.01 7.67 2.02 7.34 1 7 C0.67 4.69 0.34 2.38 0 0 Z " fill="#D8B274" transform="translate(129,15)"/>
<path d="M0 0 C1.98 0 3.96 0 6 0 C6 2.31 6 4.62 6 7 C3.00675737 5.9024777 2.15389099 5.32317108 0.75 2.375 C0.5025 1.59125 0.255 0.8075 0 0 Z " fill="#E9EAEC" transform="translate(150,0)"/>
<path d="M0 0 C0.99 0.33 1.98 0.66 3 1 C4.47965926 1.14573058 5.96403843 1.24663268 7.44921875 1.31640625 C8.29677734 1.35830078 9.14433594 1.40019531 10.01757812 1.44335938 C10.89865234 1.48267578 11.77972656 1.52199219 12.6875 1.5625 C13.58017578 1.60568359 14.47285156 1.64886719 15.39257812 1.69335938 C17.59490108 1.79935353 19.79733473 1.90142051 22 2 C22 2.33 22 2.66 22 3 C15.07 3 8.14 3 1 3 C0.67 2.01 0.34 1.02 0 0 Z " fill="#BEC1C8" transform="translate(63,0)"/>
<path d="M0 0 C3.71888239 0.50712033 6.73454239 1.11608215 10 3 C9.01 3 8.02 3 7 3 C6.67 3.99 6.34 4.98 6 6 C3.96166576 4.7260411 1.96147874 3.38938077 0 2 C0 1.34 0 0.68 0 0 Z " fill="#7A8A65" transform="translate(0,70)"/>
<path d="M0 0 C0.33 0.99 0.66 1.98 1 3 C-0.9375 5.6875 -0.9375 5.6875 -3 8 C-3.33 7.34 -3.66 6.68 -4 6 C-4.99 5.67 -5.98 5.34 -7 5 C-4.69 3.35 -2.38 1.7 0 0 Z " fill="#D9B274" transform="translate(108,64)"/>
<path d="M0 0 C0.66 0.99 1.32 1.98 2 3 C1.03221758 7.22305057 0.12148941 8.87851059 -3 12 C-2.01 8.04 -1.02 4.08 0 0 Z " fill="#7B7E46" transform="translate(87,177)"/>
<path d="M0 0 C1.98 0 3.96 0 6 0 C5.01 1.485 5.01 1.485 4 3 C3.61500109 4.65549531 3.27206865 6.3222433 3 8 C1.58622659 5.36095629 0.62759865 2.92879371 0 0 Z " fill="#C49D60" transform="translate(113,16)"/>
<path d="M0 0 C0.99 0.33 1.98 0.66 3 1 C1.37660195 2.70884005 -0.29319053 4.37446717 -2 6 C-2.66 6 -3.32 6 -4 6 C-4 5.34 -4 4.68 -4 4 C-4.66 3.67 -5.32 3.34 -6 3 C-5.195625 2.690625 -4.39125 2.38125 -3.5625 2.0625 C-1.10919595 1.23664655 -1.10919595 1.23664655 0 0 Z " fill="#F1EFEB" transform="translate(84,97)"/>
<path d="M0 0 C0.66 2.97 1.32 5.94 2 9 C-0.79872437 6.47211993 -2.45773019 4.79588866 -3 1 C-1 0 -1 0 0 0 Z " fill="#757D4A" transform="translate(69,180)"/>
<path d="M0 0 C-0.375 2.4375 -0.375 2.4375 -1 5 C-1.99 5.495 -1.99 5.495 -3 6 C-3 4.68 -3 3.36 -3 2 C-3.99 1.67 -4.98 1.34 -6 1 C-4 0 -4 0 0 0 Z " fill="#DFBA7D" transform="translate(120,44)"/>
<path d="M0 0 C-0.66 1.32 -1.32 2.64 -2 4 C-3.32 4 -4.64 4 -6 4 C-5.67 3.01 -5.34 2.02 -5 1 C-3 0 -3 0 0 0 Z " fill="#E0BB80" transform="translate(120,6)"/>
</svg>
